<svg width="90" height="90" viewBox="0 0 90 90" fill="none" xmlns="http://www.w3.org/2000/svg">
<g clip-path="url(#clip0)">
<path d="M76.875 90H13.125C10.0238 90 7.5 87.4762 7.5 84.375V46.875C7.5 45.84 8.34 45 9.375 45H80.625C81.66 45 82.5 45.84 82.5 46.875V84.375C82.5 87.4762 79.9763 90 76.875 90ZM11.25 48.75V84.375C11.25 85.4062 12.0938 86.25 13.125 86.25H76.875C77.9063 86.25 78.75 85.4062 78.75 84.375V48.75H11.25Z" fill="#313131"/>
<path d="M84.375 48.75H5.625C2.52375 48.75 0 46.2262 0 43.125V31.875C0 28.7737 2.52375 26.25 5.625 26.25H84.375C87.4762 26.25 90 28.7737 90 31.875V43.125C90 46.2262 87.4762 48.75 84.375 48.75ZM5.625 30C4.59375 30 3.75 30.8437 3.75 31.875V43.125C3.75 44.1562 4.59375 45 5.625 45H84.375C85.4062 45 86.25 44.1562 86.25 43.125V31.875C86.25 30.8437 85.4062 30 84.375 30H5.625Z" fill="#313131"/>
<path d="M45.0001 30C44.4564 30 43.9388 29.7675 43.5826 29.3512C43.2263 28.9425 43.0651 28.3987 43.1439 27.8625C43.1851 27.5812 47.3776 0 69.3751 0C79.0651 0 82.5038 5.235 82.5038 9.71625C82.5038 18.1388 70.8676 30 45.0001 30ZM69.3751 3.75C53.9551 3.75 48.6976 20.1937 47.2913 26.2125C67.8376 25.575 78.7538 16.4025 78.7538 9.71625C78.7538 8.05125 78.0526 6.67875 76.6763 5.6475C75.0263 4.40625 72.4988 3.75 69.3751 3.75Z" fill="#313131"/>
<path d="M45.0037 30C19.1363 30 7.5 18.1388 7.5 9.71625C7.5 6.88875 8.77125 4.37625 11.0738 2.6475C13.38 0.915 16.6837 0 20.6287 0C42.6263 0 46.8188 27.5812 46.86 27.8625C46.9388 28.4025 46.7775 28.9425 46.4212 29.3512C46.065 29.7675 45.5475 30 45.0037 30ZM20.6287 3.75C14.8425 3.75 11.25 6.03375 11.25 9.71625C11.25 16.4062 22.1738 25.5787 42.7313 26.2162C41.37 20.16 36.2437 3.75 20.6287 3.75Z" fill="#313131"/>
<path d="M45 90C43.965 90 43.125 89.16 43.125 88.125V28.125C43.125 27.09 43.965 26.25 45 26.25C46.035 26.25 46.875 27.09 46.875 28.125V88.125C46.875 89.16 46.035 90 45 90Z" fill="#313131"/>
</g>
<defs>
<clipPath id="clip0">
<rect width="90" height="90" fill="white"/>
</clipPath>
</defs>
</svg>
