<svg width="90" height="90" viewBox="0 0 90 90" fill="none" xmlns="http://www.w3.org/2000/svg">
<g clip-path="url(#clip0)">
<path d="M86.699 47.3592H76.2569C75.9367 43.2251 72.8749 39.8424 68.8808 39.0092V21.5569C68.8808 20.5861 68.0938 19.7991 67.123 19.7991H56.2919V15.4426C56.2917 6.92736 49.3306 0 40.7739 0C38.8148 0 36.9394 0.363164 35.212 1.02533C33.4846 0.363164 31.6092 0 29.6501 0C21.0934 0 14.1323 6.92736 14.1323 15.4426V19.7991H3.30103C2.33019 19.7991 1.54321 20.5861 1.54321 21.5569V81.6634C1.54321 86.2601 5.28841 90 9.89177 90H79.8183C84.5816 90 88.4568 86.1247 88.4568 81.3614V49.117C88.4568 48.1461 87.6697 47.3592 86.699 47.3592ZM72.7239 47.3592H61.2046C61.5623 44.5266 64.0088 42.3279 66.9642 42.3279C69.9197 42.3279 72.3662 44.5266 72.7239 47.3592ZM65.365 23.3147V38.9487C61.2167 39.6647 58.0001 43.1163 57.6716 47.3592H47.2838C46.3131 47.3592 45.526 48.1463 45.526 49.117V81.3616C45.526 83.2778 46.1532 85.0502 47.2129 86.4846H15.89V23.3147H25.2559V32.3299C25.2559 33.3007 26.0431 34.0877 27.0137 34.0877C27.9846 34.0877 28.7716 33.3007 28.7716 32.3299V23.3147H52.7761V32.3299C52.7761 33.3007 53.5632 34.0877 54.5339 34.0877C55.5045 34.0877 56.2917 33.3007 56.2917 32.3299V23.3147H65.365ZM35.212 4.87529C39.0374 6.87146 41.6523 10.8592 41.6523 15.4426V19.7991H28.7717V15.4426C28.7717 10.8592 31.3867 6.87146 35.212 4.87529ZM40.7739 3.51562C47.3919 3.51562 52.7761 8.86605 52.7761 15.4426V19.7991H45.1679V15.4426C45.1679 10.6778 42.9882 6.41021 39.5691 3.57539C39.9655 3.53584 40.3673 3.51562 40.7739 3.51562ZM29.6501 3.51562C30.0567 3.51562 30.4585 3.53584 30.8549 3.57521C27.4358 6.41021 25.2561 10.6777 25.2561 15.4424V19.7989H17.6479V15.4426C17.6478 8.86605 23.0319 3.51562 29.6501 3.51562ZM5.05884 81.6634V23.3147H12.3743V86.4844H9.89177C7.22692 86.4844 5.05884 84.3217 5.05884 81.6634ZM84.9412 81.3614C84.9412 84.186 82.6431 86.4844 79.8183 86.4844H54.1644C51.3398 86.4844 49.0416 84.1862 49.0416 81.3614V50.8748H57.644V57.8217C57.644 58.7923 58.4311 59.5795 59.4018 59.5795C60.3725 59.5795 61.1596 58.7923 61.1596 57.8217V50.8748H72.7691V57.8217C72.7691 58.7923 73.556 59.5795 74.5269 59.5795C75.4976 59.5795 76.2847 58.7923 76.2847 57.8217V50.8748H84.9412V81.3614Z" fill="#313131"/>
</g>
<defs>
<clipPath id="clip0">
<rect width="90" height="90" fill="white"/>
</clipPath>
</defs>
</svg>
