<svg width="125" height="125" viewBox="0 0 125 125" fill="none" xmlns="http://www.w3.org/2000/svg">
<path d="M29.1668 82.2917C22.273 82.2917 16.6667 87.898 16.6667 94.7918C16.6667 101.686 22.273 107.292 29.1668 107.292C36.0606 107.292 41.6668 101.686 41.6668 94.7918C41.6668 87.898 36.0603 82.2917 29.1668 82.2917ZM29.1668 103.125C24.5708 103.125 20.8335 99.3875 20.8335 94.7918C20.8335 90.1958 24.571 86.4585 29.1668 86.4585C33.7625 86.4585 37.5 90.196 37.5 94.7918C37.5 99.3875 33.7625 103.125 29.1668 103.125Z" fill="#313131"/>
<path d="M100 82.2917C93.1062 82.2917 87.5 87.898 87.5 94.7918C87.5 101.686 93.1062 107.292 100 107.292C106.894 107.292 112.5 101.686 112.5 94.7918C112.5 87.898 106.894 82.2917 100 82.2917ZM100 103.125C95.4041 103.125 91.6668 99.3875 91.6668 94.7918C91.6668 90.1958 95.4043 86.4585 100 86.4585C104.596 86.4585 108.333 90.196 108.333 94.7918C108.333 99.3875 104.596 103.125 100 103.125Z" fill="#313131"/>
<path d="M124.669 70.748L105.919 41.5813C105.535 40.9854 104.875 40.625 104.167 40.625H81.25C80.0979 40.625 79.1667 41.5584 79.1667 42.7083V94.7915C79.1667 95.9436 80.0979 96.8748 81.25 96.8748H89.5833V92.708H83.3333V44.7917H103.029L120.833 72.4875V92.7085H110.417V96.875H122.917C124.069 96.875 125 95.9438 125 94.7917V71.875C125 71.4771 124.886 71.0833 124.669 70.748Z" fill="#313131"/>
<path d="M91.6668 67.7083V53.125H108.334V48.9583H89.5835C88.4314 48.9583 87.5002 49.8916 87.5002 51.0415V69.7915C87.5002 70.9436 88.4314 71.8748 89.5835 71.8748H120.834V67.708H91.6668V67.7083Z" fill="#313131"/>
<path d="M3.66675 92.7083V93.2083H4.16675H18.25V96.375H2.08325C1.20915 96.375 0.5 95.6674 0.5 94.7918V28.125C0.5 27.2512 1.20949 26.5417 2.08325 26.5417H81.25C82.1256 26.5417 82.8333 27.2509 82.8333 28.125V94.7918C82.8333 95.6677 82.126 96.375 81.25 96.375H40.0833V93.2083H79.1668H79.6668V92.7083V30.2083V29.7083H79.1668H4.16675H3.66675V30.2083V92.7083Z" fill="#313131" stroke="black"/>
<path d="M14.5833 84.375H2.08325V88.5417H14.5833V84.375Z" fill="#313131"/>
<path d="M79.1667 84.375H43.75V88.5417H79.1667V84.375Z" fill="#313131"/>
<path d="M122.917 84.375H114.583V88.5417H122.917V84.375Z" fill="#313131"/>
<path d="M81.25 34.375H8.33325V38.5417H81.25V34.375Z" fill="#313131"/>
<path d="M31.25 92.7083H27.0833V96.875H31.25V92.7083Z" fill="#313131"/>
<path d="M98.4167 96.375V93.2083H101.583V96.375H98.4167Z" fill="#313131" stroke="black"/>
<path d="M37.5 17.7083H8.33325V21.875H37.5V17.7083Z" fill="#313131"/>
<path d="M4.16675 17.7083H0V21.875H4.16675V17.7083Z" fill="#313131"/>
</svg>
